<mxfile host="Electron" agent="Mozilla/5.0 (X11; Linux x86_64) AppleWebKit/537.36 (KHTML, like Gecko) draw.io/24.7.8 Chrome/128.0.6613.36 Electron/32.0.1 Safari/537.36" version="24.7.8">
  <diagram name="Page-1" id="zqJNzWDIM2BTyIgZEMH5">
    <mxGraphModel dx="1354" dy="837" grid="1" gridSize="10" guides="1" tooltips="1" connect="1" arrows="1" fold="1" page="1" pageScale="1" pageWidth="1169" pageHeight="827" math="1" shadow="0">
      <root>
        <mxCell id="0" />
        <mxCell id="1" parent="0" />
        <mxCell id="9W0mmR9hmKZtwIXSAhaU-1" value="$$\text{API Interface}$$" style="rounded=0;whiteSpace=wrap;html=1;fillColor=#CCFFFF;strokeColor=#CCFFFF;" vertex="1" parent="1">
          <mxGeometry x="460" y="200" width="280" height="40" as="geometry" />
        </mxCell>
        <mxCell id="9W0mmR9hmKZtwIXSAhaU-2" value="$$\text{Quantum Algorithms}$$" style="rounded=0;whiteSpace=wrap;html=1;strokeColor=#FFCCE6;fillColor=#FFCCE6;" vertex="1" parent="1">
          <mxGeometry x="460" y="240" width="280" height="40" as="geometry" />
        </mxCell>
        <mxCell id="9W0mmR9hmKZtwIXSAhaU-3" value="$$\text{TensorFlow Backend}$$" style="rounded=0;whiteSpace=wrap;html=1;fillColor=#FFE6CC;strokeColor=#FFE6CC;" vertex="1" parent="1">
          <mxGeometry x="460" y="280" width="140" height="40" as="geometry" />
        </mxCell>
        <mxCell id="9W0mmR9hmKZtwIXSAhaU-4" value="$$\text{Custom Operators}$$" style="rounded=0;whiteSpace=wrap;html=1;fillColor=#CCE5FF;strokeColor=#CCE5FF;" vertex="1" parent="1">
          <mxGeometry x="600" y="280" width="140" height="40" as="geometry" />
        </mxCell>
        <mxCell id="9W0mmR9hmKZtwIXSAhaU-5" value="$$\text{Abstraction Layer}$$" style="rounded=0;whiteSpace=wrap;html=1;strokeColor=#CCFFCC;fillColor=#CCFFCC;" vertex="1" parent="1">
          <mxGeometry x="460" y="320" width="280" height="40" as="geometry" />
        </mxCell>
      </root>
    </mxGraphModel>
  </diagram>
</mxfile>
